<svg xmlns="http://www.w3.org/2000/svg" xmlns:xlink="http://www.w3.org/1999/xlink" width="60" zoomAndPan="magnify" viewBox="0 0 45 44.999999" height="60" preserveAspectRatio="xMidYMid meet" version="1.2"><defs><clipPath id="207d271ee1"><path d="M 22 15 L 35.886719 15 L 35.886719 30 L 22 30 Z M 22 15 "/></clipPath><clipPath id="532916cf40"><path d="M 8.886719 29 L 23 29 L 23 43.292969 L 8.886719 43.292969 Z M 8.886719 29 "/></clipPath><clipPath id="27d3ed82b7"><path d="M 22 2.042969 L 35.886719 2.042969 L 35.886719 16 L 22 16 Z M 22 2.042969 "/></clipPath><clipPath id="ceeb9552ae"><path d="M 8.886719 2.042969 L 23 2.042969 L 23 16 L 8.886719 16 Z M 8.886719 2.042969 "/></clipPath><clipPath id="492f8d9e9e"><path d="M 8.886719 15 L 23 15 L 23 30 L 8.886719 30 Z M 8.886719 15 "/></clipPath></defs><g id="f7b87d7d47"><g clip-rule="nonzero" clip-path="url(#207d271ee1)"><path style=" stroke:none;fill-rule:nonzero;fill:#1abcfe;fill-opacity:1;" d="M 22.386719 22.667969 C 22.386719 18.878906 25.410156 15.804688 29.136719 15.804688 C 32.863281 15.804688 35.886719 18.878906 35.886719 22.667969 C 35.886719 26.457031 32.863281 29.53125 29.136719 29.53125 C 25.410156 29.53125 22.386719 26.457031 22.386719 22.667969 Z M 22.386719 22.667969 "/></g><g clip-rule="nonzero" clip-path="url(#532916cf40)"><path style=" stroke:none;fill-rule:nonzero;fill:#0acf83;fill-opacity:1;" d="M 8.886719 36.390625 C 8.886719 32.601562 11.910156 29.53125 15.636719 29.53125 L 22.386719 29.53125 L 22.386719 36.390625 C 22.386719 40.183594 19.363281 43.253906 15.636719 43.253906 C 11.910156 43.253906 8.886719 40.183594 8.886719 36.390625 Z M 8.886719 36.390625 "/></g><g clip-rule="nonzero" clip-path="url(#27d3ed82b7)"><path style=" stroke:none;fill-rule:nonzero;fill:#ff7262;fill-opacity:1;" d="M 22.386719 2.082031 L 22.386719 15.804688 L 29.136719 15.804688 C 32.863281 15.804688 35.886719 12.734375 35.886719 8.941406 C 35.886719 5.152344 32.863281 2.082031 29.136719 2.082031 Z M 22.386719 2.082031 "/></g><g clip-rule="nonzero" clip-path="url(#ceeb9552ae)"><path style=" stroke:none;fill-rule:nonzero;fill:#f24e1e;fill-opacity:1;" d="M 8.886719 8.941406 C 8.886719 12.734375 11.910156 15.804688 15.636719 15.804688 L 22.386719 15.804688 L 22.386719 2.082031 L 15.636719 2.082031 C 11.910156 2.082031 8.886719 5.152344 8.886719 8.941406 Z M 8.886719 8.941406 "/></g><g clip-rule="nonzero" clip-path="url(#492f8d9e9e)"><path style=" stroke:none;fill-rule:nonzero;fill:#a259ff;fill-opacity:1;" d="M 8.886719 22.667969 C 8.886719 26.457031 11.910156 29.53125 15.636719 29.53125 L 22.386719 29.53125 L 22.386719 15.804688 L 15.636719 15.804688 C 11.910156 15.804688 8.886719 18.878906 8.886719 22.667969 Z M 8.886719 22.667969 "/></g></g></svg>